<svg width="53" height="40" viewBox="0 0 53 40" fill="none" xmlns="http://www.w3.org/2000/svg">
<path d="M16.9822 26.9787C16.7878 26.9787 16.5933 27.0055 16.4078 27.0622C15.3533 27.3847 14.2443 27.5915 13.0767 27.5915C11.9091 27.5915 10.8001 27.3847 9.74481 27.0622C9.55929 27.0055 9.36565 26.9787 9.17118 26.9787C4.12167 26.9787 0.0314475 30.8453 0.0582979 35.605C0.0696891 37.6165 1.82636 39.2342 3.96382 39.2342H22.1896C24.327 39.2342 26.0837 37.6165 26.0951 35.605C26.122 30.8453 22.0317 26.9787 16.9822 26.9787ZM13.0767 24.5276C17.3907 24.5276 20.8877 21.2355 20.8877 17.1744C20.8877 13.1132 17.3907 9.82109 13.0767 9.82109C8.76273 9.82109 5.26566 13.1132 5.26566 17.1744C5.26566 21.2355 8.76273 24.5276 13.0767 24.5276ZM48.2264 0.0167236H16.9822C14.8285 0.0167236 13.0767 1.721 13.0767 3.81515V7.37C14.9823 7.37 16.7463 7.88933 18.2841 8.73342V4.91891H46.9246V26.9787H41.7172V22.0766H31.3025V26.9787H25.0992C26.6533 28.2571 27.794 29.9453 28.3286 31.8809H48.2264C50.3801 31.8809 52.1319 30.1766 52.1319 28.0825V3.81515C52.1319 1.721 50.3801 0.0167236 48.2264 0.0167236Z" fill="#3722D3"/>
</svg>
