<svg width="33" height="38" viewBox="0 0 33 38" fill="none" xmlns="http://www.w3.org/2000/svg">
<path d="M29.7 38H3.3C2.42479 38 1.58542 37.714 0.966547 37.205C0.347677 36.696 0 36.0056 0 35.2857V2.71429C0 1.99441 0.347677 1.30402 0.966547 0.794996C1.58542 0.285968 2.42479 0 3.3 0H29.7C30.5752 0 31.4146 0.285968 32.0335 0.794996C32.6523 1.30402 33 1.99441 33 2.71429V25.2673L24.75 21.8744L16.5 25.2673V2.71429H3.3V35.2857H29.7V29.8571H33V35.2857C32.9987 36.0053 32.6506 36.695 32.032 37.2038C31.4134 37.7126 30.5748 37.9989 29.7 38ZM24.75 18.8399L29.7 20.8756V2.71429H19.8V20.8756L24.75 18.8399Z" fill="#3722D3"/>
</svg>
