<svg width="58" height="58" viewBox="0 0 58 58" fill="none" xmlns="http://www.w3.org/2000/svg">
<path d="M28.6397 7.16467L5.45062 12.5382V16.1206L28.6397 10.747L51.8288 16.1206V12.5382L28.6397 7.16467ZM17.9371 17.9118C12.1808 17.9118 6.56548 20.2636 6.56548 20.2636L5.45062 20.7651V48.3619H25.5734C26.1942 49.433 27.3215 50.1531 28.6397 50.1531C29.9561 50.1531 31.0853 49.433 31.706 48.3619H51.8288V20.7669L50.714 20.2636C50.714 20.2636 45.0986 17.9118 39.3424 17.9118C34.1373 17.9118 29.5673 19.6671 28.6397 20.0397C27.7122 19.6671 23.1421 17.9118 17.9371 17.9118ZM17.9371 21.4941C21.3869 21.4941 25.0722 22.6136 26.8559 23.2298V43.1567C24.8706 42.4993 21.6099 41.5894 17.9371 41.5894C14.1876 41.5894 11.1355 42.4563 9.01818 43.1567V23.2298C10.3917 22.7301 14.0128 21.4941 17.9371 21.4941ZM39.3424 21.4941C43.2667 21.4941 46.8878 22.7318 48.2613 23.2298V43.1567C46.1421 42.4581 43.0919 41.5894 39.3424 41.5894C35.6696 41.5894 32.4088 42.4993 30.4235 43.1567V23.2298C32.2073 22.6136 35.8926 21.4941 39.3424 21.4941Z" fill="#3722D3"/>
</svg>
