<svg width="68" height="41" viewBox="0 0 68 41" fill="none" xmlns="http://www.w3.org/2000/svg">
<path d="M34.0922 0.416382L33.4215 0.626106L6.63487 9.87167L0.544678 11.9402L4.09122 13.1103V32.427C2.81189 33.1931 1.94829 34.5905 1.94829 36.2242C1.94829 37.3952 2.39984 38.5182 3.20359 39.3462C4.00735 40.1743 5.09747 40.6394 6.23415 40.6394C7.37083 40.6394 8.46095 40.1743 9.2647 39.3462C10.0685 38.5182 10.52 37.3952 10.52 36.2242C10.52 34.5905 9.6564 33.1931 8.37707 32.427V14.6335L12.6629 16.0795V27.3936C12.6629 29.2039 13.7344 30.7051 15.0073 31.7427C16.2802 32.7736 17.8617 33.5022 19.7603 34.1556C23.5619 35.4581 28.572 36.2242 34.0922 36.2242C39.6124 36.2242 44.6225 35.4603 48.4241 34.1534C50.3227 33.5022 51.9042 32.7736 53.1771 31.7405C54.45 30.7051 55.5215 29.2039 55.5215 27.3936V16.0795L61.5495 14.0088L67.6397 11.9402L61.5474 9.86946L34.7608 0.626106L34.0922 0.416382ZM34.0922 5.04137L54.1821 11.9402L34.0922 18.8391L14.0023 11.9402L34.0922 5.04137ZM16.9488 17.5984L33.4236 23.2543L34.0922 23.4618L34.7629 23.2521L51.2356 17.5962V27.3936C51.2356 27.4157 51.2442 27.6718 50.5649 28.2215C49.8877 28.7734 48.6727 29.4688 47.0826 30.0163C43.9068 31.1047 39.2245 31.8089 34.0922 31.8089C28.9599 31.8089 24.2776 31.1069 21.0996 30.0141C19.5139 29.4688 18.2967 28.7712 17.6195 28.2215C16.9381 27.6696 16.9488 27.4157 16.9488 27.3936V17.5984Z" fill="#3722D3"/>
</svg>
